<svg version="1.1" viewBox="0.0 0.0 263.56955380577426 262.8923884514436" fill="none" stroke="none" stroke-linecap="square" stroke-miterlimit="10" xmlns:xlink="http://www.w3.org/1999/xlink" xmlns="http://www.w3.org/2000/svg"><clipPath id="p.0"><path d="m0 0l263.56955 0l0 262.8924l-263.56955 0l0 -262.8924z" clip-rule="nonzero"/></clipPath><g clip-path="url(#p.0)"><path fill="#000000" fill-opacity="0.0" d="m0 0l263.56955 0l0 262.8924l-263.56955 0z" fill-rule="evenodd"/><defs><linearGradient id="p.1" gradientUnits="userSpaceOnUse" gradientTransform="matrix(19.303878377553506 0.0 0.0 19.303878377553506 0.0 0.0)" spreadMethod="pad" x1="-6.817609220208818" y1="6.817584257693507" x2="6.832269652339803" y2="20.46751199303806"><stop offset="0.0" stop-color="#00ff00"/><stop offset="1.0" stop-color="#007900"/></linearGradient></defs><path fill="url(#p.1)" d="m0 131.6063l0 0c0 -72.68414 59.049057 -131.6063 131.88977 -131.6063l0 0c34.97934 0 68.52602 13.865623 93.26015 38.546593c24.734116 24.68097 38.629623 58.15555 38.629623 93.0597l0 0c0 72.68416 -59.049072 131.6063 -131.88977 131.6063l0 0c-72.84071 0 -131.88977 -58.922134 -131.88977 -131.6063z" fill-rule="evenodd"/><path fill="#666666" d="m46.251743 121.337105l0 0c0 -10.36689 8.404026 -18.770912 18.770916 -18.770912l129.14522 0c4.978348 0 9.752808 1.9776459 13.273041 5.4978714c3.520218 3.5202332 5.497864 8.294685 5.497864 13.273041l0 75.0814c0 10.366882 -8.404022 18.770905 -18.770905 18.770905l-129.14522 0c-10.36689 0 -18.770916 -8.404022 -18.770916 -18.770905z" fill-rule="evenodd"/><path fill="#666666" d="m72.82561 139.34743l0 0c-7.549179 -36.2565 2.018036 -75.441864 23.59256 -96.63032c21.574524 -21.188454 50.117035 -19.430845 70.385254 4.3342247c20.268219 23.765072 27.527939 63.986614 17.902328 99.18553l-23.1902 -13.438553c4.338333 -24.42707 -0.31489563 -51.14144 -11.614746 -66.68075c-11.29985 -15.539314 -26.794144 -16.531384 -38.674736 -2.4762688c-11.880592 14.055111 -17.569275 40.10731 -14.199318 65.02792z" fill-rule="evenodd"/><path fill="#cccccc" d="m109.38273 143.82889l0 0c0 -11.158752 9.045967 -20.20472 20.204735 -20.20472l0 0c5.358612 0 10.497772 2.128708 14.286896 5.917824c3.7891083 3.7891235 5.917816 8.928268 5.917816 14.286896l0 0c0 11.158768 -9.045959 20.204727 -20.204712 20.204727l0 0c-11.158768 0 -20.204735 -9.045959 -20.204735 -20.204727z" fill-rule="evenodd"/><path fill="#cccccc" d="m105.82805 192.71844l23.748032 -50.29921l23.748032 50.29921z" fill-rule="evenodd"/></g></svg>